<svg width="9" height="9" viewBox="0 0 9 9" fill="none" xmlns="http://www.w3.org/2000/svg">
<path d="M0 4.5C0 2.01472 2.01472 0 4.5 0V0C6.98528 0 9 2.01472 9 4.5V4.5C9 6.98528 6.98528 9 4.5 9V9C2.01472 9 0 6.98528 0 4.5V4.5Z" fill="#CCCCCC" fill-opacity="0.752941"/>
<path d="M1.20178 4.16774C1.09034 3.88552 1.22878 3.5664 1.511 3.45496L5.599 1.84073C5.88121 1.72929 6.20033 1.86773 6.31177 2.14995L7.926 6.23794C8.03744 6.52016 7.899 6.83928 7.61678 6.95072L3.52879 8.56495C3.24657 8.67639 2.92745 8.53795 2.81601 8.25573L1.20178 4.16774Z" fill="#DFE6FF"/>
<path d="M4.81042 4.76052C4.86253 4.53572 5.12354 4.43266 5.31517 4.56121L7.59787 6.09244C7.81849 6.24043 7.78239 6.57522 7.53531 6.67279L4.63189 7.81926C4.38481 7.91683 4.12971 7.69702 4.1897 7.43823L4.81042 4.76052Z" fill="#83AACE" fill-opacity="0.82"/>
<path d="M3.74405 5.48904C3.80239 5.27772 4.04691 5.18117 4.23389 5.29562L6.33249 6.58014C6.56443 6.72211 6.5344 7.06802 6.28147 7.16789L3.52803 8.25515C3.2751 8.35502 3.01685 8.12295 3.08922 7.86082L3.74405 5.48904Z" fill="#0075E1" fill-opacity="0.82"/>
<path d="M3.66008 4.26024C3.76037 4.51424 3.63578 4.80145 3.38178 4.90174C3.12778 5.00204 2.84058 4.87744 2.74028 4.62345C2.63998 4.36945 2.76458 4.08224 3.01858 3.98194C3.27257 3.88165 3.55978 4.00625 3.66008 4.26024Z" fill="#E1AF00"/>
<path d="M6.74558 3.1346C6.69612 3.14078 6.65284 3.12378 6.61575 3.0836C6.57866 3.04341 6.56011 2.99859 6.56011 2.94914C6.56011 2.89659 6.57866 2.85486 6.61575 2.82395C6.65284 2.78995 6.69612 2.76986 6.74558 2.76367C6.90013 2.75131 7.05314 2.74513 7.2046 2.74513C7.35606 2.74513 7.50906 2.74976 7.66362 2.75904C7.70689 2.74358 7.75326 2.74667 7.80271 2.76831C8.09018 2.78995 8.38074 2.82704 8.67439 2.87959C8.72385 2.88886 8.76094 2.91823 8.78567 2.96768C8.8104 3.01714 8.81503 3.06351 8.79958 3.10678C8.78412 3.15933 8.75476 3.19642 8.71148 3.21806C8.6713 3.2366 8.62493 3.24279 8.57238 3.2366C8.45492 3.21497 8.33901 3.19642 8.22464 3.18097C8.11027 3.16551 7.99436 3.15315 7.8769 3.14387C7.83362 3.36025 7.80735 3.57662 7.79808 3.79299C7.7919 4.00937 7.79962 4.22883 7.82126 4.45139C7.8429 4.68012 7.87381 4.90732 7.91399 5.13296C7.95418 5.35552 7.9959 5.57962 8.03918 5.80526C8.04845 5.85781 8.04227 5.90572 8.02063 5.949C8.00209 5.98918 7.96654 6.017 7.91399 6.03246C7.86763 6.04791 7.81971 6.04327 7.77026 6.01855C7.72389 5.99382 7.69607 5.95673 7.6868 5.90727C7.63734 5.65689 7.58943 5.40961 7.54307 5.16542C7.49979 4.91813 7.46734 4.6693 7.4457 4.41893C7.42715 4.19947 7.42252 3.98155 7.43179 3.76517C7.44106 3.5488 7.46579 3.33397 7.50597 3.12069C7.25251 3.11142 6.99904 3.11605 6.74558 3.1346Z" fill="#0A0A0A"/>
</svg>
